<?xml version="1.0" encoding="utf-8"?>
<!-- Generator: Adobe Illustrator 24.1.2, SVG Export Plug-In . SVG Version: 6.00 Build 0)  -->
<svg version="1.1" id="Calque_1" xmlns="http://www.w3.org/2000/svg" xmlns:xlink="http://www.w3.org/1999/xlink" x="0px" y="0px"
	 viewBox="0 0 1680 644.7" style="enable-background:new 0 0 1680 644.7;" xml:space="preserve">
<style type="text/css">
	.st0{fill:#A5C8FE;}
	.st1{fill:none;stroke:#FFF0A2;stroke-width:1.3423;stroke-linecap:round;stroke-linejoin:round;}
	.st2{fill-rule:evenodd;clip-rule:evenodd;fill:#DEDEDE;}
	.st3{fill-rule:evenodd;clip-rule:evenodd;fill:#F77F89;}
	.st4{fill-rule:evenodd;clip-rule:evenodd;fill:#6367FD;}
	.st5{fill:none;stroke:#4C4FD9;stroke-width:1.3423;stroke-linecap:round;stroke-linejoin:round;}
	.st6{fill-rule:evenodd;clip-rule:evenodd;fill:#F7D167;}
	.st7{fill:none;stroke:#FF3274;stroke-width:1.3423;stroke-linecap:round;stroke-linejoin:round;}
	.st8{fill-rule:evenodd;clip-rule:evenodd;fill:#BF9111;}
	.st9{fill-rule:evenodd;clip-rule:evenodd;fill:#3B4161;}
	.st10{fill-rule:evenodd;clip-rule:evenodd;fill:#FFF0A2;}
	.st11{fill:none;stroke:#6367FD;stroke-width:4.5436;stroke-linecap:round;stroke-linejoin:round;}
	.st12{fill-rule:evenodd;clip-rule:evenodd;fill:#FFFFFF;}
	.st13{fill:none;stroke:#FFFFFF;stroke-width:2.047;stroke-linecap:round;stroke-linejoin:round;}
	.st14{fill-rule:evenodd;clip-rule:evenodd;fill:#CB5D66;}
	.st15{fill:none;stroke:#737999;stroke-width:1.3423;stroke-linecap:round;stroke-linejoin:round;}
	.st16{fill:none;stroke:#CB5D66;stroke-width:1.3423;stroke-linecap:round;stroke-linejoin:round;}
	.st17{fill-rule:evenodd;clip-rule:evenodd;fill:#F2E283;}
	.st18{fill:none;stroke:#C9C9C9;stroke-width:1.3423;stroke-linecap:round;stroke-linejoin:round;}
	.st19{fill:none;stroke:#72A5BD;stroke-width:1.3423;stroke-linecap:round;stroke-linejoin:round;}
	.st20{fill-rule:evenodd;clip-rule:evenodd;fill:#A5C8FE;}
	.st21{fill-rule:evenodd;clip-rule:evenodd;fill:#C4C4C4;}
	.st22{fill-rule:evenodd;clip-rule:evenodd;}
	.st23{fill:none;stroke:#FFFFFF;stroke-width:1.3423;stroke-linecap:round;stroke-linejoin:round;}
	.st24{fill:none;stroke:#8D8D8D;stroke-width:1.3423;stroke-linecap:round;stroke-linejoin:round;}
</style>
<rect class="st0" width="1680" height="588"/>
<g>
	<g id="Layer_2_1_">
		<g id="Layer_1-2_1_">
			<path class="st1" d="M1108.1,291H1070c-0.7,0-1.3,0.6-1.3,1.3v18.8c0,0.7,0.6,1.3,1.3,1.3h38.1c0.7,0,1.3-0.6,1.3-1.3v-18.8
				C1109.4,291.6,1108.9,291,1108.1,291z"/>
			<path class="st1" d="M1087.7,269.5h-38.1c-0.7,0-1.3,0.6-1.3,1.3v18.8c0,0.7,0.6,1.3,1.3,1.3h38.1c0.7,0,1.3-0.6,1.3-1.3v-18.8
				C1089,270.1,1088.4,269.5,1087.7,269.5z"/>
			<path class="st1" d="M1067.3,291h-38.1c-0.7,0-1.3,0.6-1.3,1.3v18.8c0,0.7,0.6,1.3,1.3,1.3h38.1c0.7,0,1.3-0.6,1.3-1.3v-18.8
				C1068.6,291.6,1068,291,1067.3,291z"/>
			<path class="st1" d="M1127.9,312.5h-38.1c-0.7,0-1.3,0.6-1.3,1.3v18.8c0,0.7,0.6,1.3,1.3,1.3h38.1c0.7,0,1.3-0.6,1.3-1.3v-18.8
				C1129.3,313.2,1128.6,312.5,1127.9,312.5z"/>
			<path class="st2" d="M1144.6,545.9c-22.1,0-42,13.2-50.7,33.3c-7.2-5.8-17.3-5.8-24.6-0.2c-7.2-17.1-26.9-25.2-43.9-18
				c-6.9,2.9-12.6,7.9-16.2,14.4c-12-7.4-27.7-3.7-35.1,8.3c-0.9,1.5-1.6,3-2.3,4.7c0.6,0,1.1-0.2,1.7-0.2h255.5
				c-3-11-14.4-17.6-25.4-14.5c-3.3,0.9-6.2,2.5-8.7,4.8C1186.1,558.8,1166.4,546,1144.6,545.9z"/>
			<path class="st2" d="M957.9,582h292.3c1.8,0,3.2,1.5,3.2,3.2l0,0l0,0c0,1.8-1.5,3.2-3.2,3.2H957.9c-1.8,0-3.2-1.5-3.2-3.2l0,0
				C954.7,583.5,956.1,582,957.9,582L957.9,582z"/>
			<path class="st3" d="M910.5,545.1l-8.6,11.9l17.6,22l8.1-14.1L910.5,545.1z"/>
			<path class="st4" d="M901.2,551.6l-20.1,23.3l31.6,36.9c0,0,21-0.2,27.6-0.2c-0.2-8.1-6-24.8-22.3-24.1
				c3.3-5.8,5.6-10.5,5.6-10.5L901.2,551.6z"/>
			<path class="st5" d="M918.1,587.5c-9.1-2.8-13.2,0.8-19.7,7.6c-4.5,4.7-13.8,4.3-19.4,1.6"/>
			<path class="st5" d="M897.1,617c3,1.3,6.1,2.4,9.2,3.1c8.3-7.4,13.2-24.9,11.7-32.8"/>
			<path class="st5" d="M893.1,560.7c6,4.6,7.2,13.1,2.6,19.1c-1.6,2.1-3.8,3.8-6.5,4.7"/>
			<path class="st5" d="M884.6,570.8l31.1,34l23-1.3"/>
			<path class="st6" d="M960.7,446.7l-53.3,97.5l20.4,23.9l96.2-99.2L1003,439L960.7,446.7z"/>
			<path class="st7" d="M938.9,556.7l-23.8-26.5"/>
			<path class="st8" d="M1002.9,439l-42.2,7.7l-21.5,39.4l36.8-0.9l12,20.7l35.9-37.1L1002.9,439z"/>
			<path class="st7" d="M916.5,554.8c21.8-25.6,88.6-103.4,88.6-103.4"/>
			<path class="st3" d="M1061.4,577.2l6.5,13.4l28.8-5.2l-4.8-16.2L1061.4,577.2z"/>
			<path class="st4" d="M1063.5,590.6l9.9,28.2c0,0,56.9-11.4,61.3-12.5c-8.1-19-24.6-15.8-31.9-14c-1.8-3.4-3.4-7-4.9-10.6
				L1063.5,590.6z"/>
			<path class="st5" d="M1102.3,585.8c1.1-3.8,3.8-6.3,6-5.6c2.1,0.7,3,4.2,1.8,8.1c-1.1,3.8-3.8,6.3-6,5.6
				C1102,593.3,1101.2,589.7,1102.3,585.8z"/>
			<path class="st5" d="M1112,585.3c3-3.1,6.8-4.1,8.4-2.2c1.6,1.9,0.5,6-2.5,9.1s-6.8,4.1-8.4,2.2
				C1107.8,592.5,1109,588.4,1112,585.3z"/>
			<path class="st3" d="M1085.7,364c3.6,2.9,7.3,6.3,12,8.1c7.1,1.7,20.1,16,20.1,19c0,2.9-2.6,3.9-4.2,4c-1.4,0.1-4.3-3.1-5.1-4.1
				c1.3,2.9,2,6.9,0.6,8.2c-1.5,1.2-3.5,1.7-4.9,0.1c-2.3-2.7-1.7-5.7-2-7.5c-1.1-2.2-4.2-7-5.6-7.6c-0.9,0.1-2.3,0.4-2.5,1.9
				c-0.2,1.5,3.2,4.7,3.5,6.1c0,1.7-1.9,3.9-3.5,3.5c-1.9-0.5-7.6-6.1-8.9-7.6c-1.7-2-2.5-6.5-3.4-8.1c-0.9-1.5-4.5-4.7-5.1-5.4
				C1075.9,374,1082.1,361.2,1085.7,364z"/>
			<path class="st9" d="M1050.1,293.7c12.8,10.9,32,53.8,44.4,64.4c-1.3,6.6-21.7,31.3-36.2,25.4
				C1040.1,376.1,1040.3,285.5,1050.1,293.7z"/>
			<path class="st6" d="M1060,354.8l38.1,215.9l-39.9,9.4l-52.4-137.3l13-95.4L1060,354.8z"/>
			<path class="st7" d="M1026.4,496.8l-18.7-49.1"/>
			<path class="st7" d="M1075.5,576.1l-61.4-193.3"/>
			<path class="st7" d="M1063.4,374c-5.4,2.3-32.8,7.4-43.5,6.2"/>
			<path class="st10" d="M948,322.5l72.1,7.7c4.3,0.5,7.4,4.5,6.9,9.1l-11.8,110.4c-0.5,4.6-4.3,7.8-8.7,7.4l-72.1-7.6
				c-4.3-0.5-7.4-4.5-6.9-9.1l11.7-110.4C939.8,325.3,943.7,322.1,948,322.5z"/>
			<path class="st7" d="M950.3,389.7c0-15.2,12.3-27.5,27.5-27.5s27.5,12.3,27.5,27.5c0,15.2-12.3,27.5-27.5,27.5
				S950.3,404.9,950.3,389.7L950.3,389.7z"/>
			<path class="st3" d="M976.1,199.1c0-6.9,3.8-12.4,8.7-12.4c4.7,0,8.7,5.6,8.7,12.4s-3.8,12.4-8.7,12.4S976.1,206,976.1,199.1z"/>
			<path class="st3" d="M980.9,205.7c0-15.2,12.3-27.5,27.5-27.5s27.5,12.3,27.5,27.5s-12.3,27.5-27.5,27.5l0,0
				C993.3,233.2,980.9,220.8,980.9,205.7L980.9,205.7z"/>
			<path class="st3" d="M971.6,381.5c-1.3,4.2-5.5,13.2-1.5,29.1c-7.5,11.6-4,19.8,13.2,21.8c2.9-3.5,5.8-5.8,9-10.9
				c1.1-4.6,1-11.6,1.1-13.5c0.2-3.8-5.5-19.1-4-26C990.8,375.2,972.9,377.3,971.6,381.5z"/>
			<path class="st9" d="M1005.8,242.5c-39.6,0-54.7,83.3-50.4,136.6c8.3,5.2,41,7.2,50.4,4.7c2-9.4,2.7-48.5,3.1-54.9
				c21.9,2.1,18.1,5.6,15.4,34.9c11.4,0.4,26.8-2.7,38.3-7.5C1064.3,336.2,1052.5,242.5,1005.8,242.5z"/>
			<path class="st11" d="M950.3,327.5l5.2-50.1c1.7-16.3,16.3-28.2,32.7-26.5l5.6,0.6c16.3,1.7,28.2,16.3,26.5,32.7l-5.4,51.5"/>
			<path class="st3" d="M989.6,221.7c2,8.9,2.6,21.4,2.2,26.3c5.2,3.1,18.9,5.2,25.4-3.5c-3.1-7.5-3.8-11.1-3.5-15.4
				C1014,224.8,987.6,212.9,989.6,221.7z"/>
			<path class="st12" d="M998.3,231.3c-0.6-4.7,2.9-16,4.8-17.6c18.5,0.7,29.9-12.4,31.7-16c1.7,2.3,3,4.9,3.7,7.7
				c0.5,1.8,0.1,3.1-3,5.7C1034.8,221.8,1025,238.9,998.3,231.3z"/>
			<path class="st13" d="M1004.6,214.9c0,0-16.7-13.7-21.6-14.4"/>
			<path class="st14" d="M1018.4,200.5c0-2.4,0.8-4.3,1.7-4.3c1,0,1.8,2,1.8,4.3c0,2.4-0.8,4.3-1.7,4.3
				C1019.1,204.8,1018.4,202.9,1018.4,200.5z"/>
			<path class="st15" d="M1007.3,368.9c-6.4,0.9-41.1-0.6-52.6-5.3"/>
			<path class="st15" d="M1009,328.9c-0.5-13.2,11.5-55.8-12.1-73.4"/>
			<path class="st15" d="M1009,328.8l-12.2,5.2"/>
			<path class="st15" d="M997.4,327.7l11.6,0.8"/>
			<path class="st15" d="M999.1,319.5l9.9,8.9"/>
			<path class="st15" d="M1062.7,356.3c0.7-8.8-1.1-31.6-7.4-54.6"/>
			<path class="st15" d="M1085.3,347.4c-5.4,9.5-18.1,19.7-22.8,21.7"/>
			<path class="st7" d="M1047.9,377.6c-0.6-3.4-2.6-16-2.6-16"/>
			<path class="st7" d="M1095.6,557.3l-43.5,6.9"/>
			<path class="st7" d="M1083.1,486c-0.7,0.1-1.6,0.2-2.3,0.2c-11.6,0-21-9.4-21-21c0-9.7,6.6-18.1,16-20.4"/>
			<path class="st5" d="M1071.5,613.4l60.9-11.5"/>
			<path class="st5" d="M1066.6,600.2c1.6-0.7,3.3-1,5-1c7.5,0,13.6,6.1,13.6,13.6c0,1.1-0.2,2.4-0.5,3.5"/>
			<path class="st13" d="M998.7,230.3c-2.1-0.8-10.5-3.8-14.9-12.7"/>
			<path class="st3" d="M975.6,210.9c0-4.9,4-8.9,8.9-8.9s8.9,4,8.9,8.9s-4,8.9-8.9,8.9l0,0C979.6,219.8,975.6,215.8,975.6,210.9z"
				/>
			<path class="st16" d="M993,213.5c-1.1,3.8-4.6,6.3-8.5,6.3"/>
			<path class="st16" d="M977.4,205.4c1.3-1.6,3.1-2.8,5.1-3.2"/>
			<path class="st17" d="M997.2,166.4c-15,3.7-24.3,19.6-20.9,35.6l0,0l54.3-13.3C1027.2,172.7,1012.2,162.8,997.2,166.4
				L997.2,166.4z"/>
			<path class="st17" d="M1012.2,184.4l41.8-9.6c3.4-0.8,6.7,0.6,7.3,3l0,0c0.6,2.5-1.8,5.1-5.2,5.9l-41.8,9.6
				c-3.4,0.8-6.7-0.6-7.3-3l0,0C1006.4,187.8,1008.7,185.2,1012.2,184.4z"/>
			<path class="st16" d="M968.9,427c1.8-1.9,3.4-3.9,4.8-6.1"/>
			<path class="st16" d="M976.3,431c2.9-2.7,6.9-8.5,9.1-11.9"/>
			<path class="st16" d="M1094.9,384.9c4.2-3.5,10.9,3.7,13.8,6.6"/>
			<path class="st16" d="M986,214.5c-2,0.8-4.2,0-5.1-2c-0.9-2,0-4.2,2-5.1c1.1-0.5,2.5-0.4,3.5,0.2"/>
			<path class="st7" d="M1012.7,166.6c-15.8-4.1-32.1,5.4-36.2,21.3c-0.4,1.5-0.7,2.9-0.8,4.5"/>
			<path class="st18" d="M1034.9,197.7c1.7,2.3,3,4.9,3.7,7.7c0.5,1.8,0.1,3.1-3,5.7c-0.7,8.3-6.6,20.5-21.6,22"/>
		</g>
	</g>
	<g id="Layer_2">
		<g id="Layer_1-2">
			<path class="st10" d="M762.5,437c-37.4-0.6-55.9,134.4-52.7,144.1c0.7,2.2,2.5,4.7,4.7,6.9h32.9c5-10.6,12.1-32.2,17.6-56.1
				l-9.4-5.2l11.8-6c2.6-12.3,4.4-24.7,5.5-37.2l-9.2-2.1l5.1-7.4l-5.8-1.3l10-10.8C771.9,450.1,768.8,441,762.5,437z"/>
			<path class="st19" d="M762.4,437l-34.1,151"/>
			<path class="st10" d="M695,404.7c-45.7,17-14,166.7-4.8,182.9h48.3c0.1-0.2,0.2-0.2,0.2-0.3c5.4-10.9,4.1-84.8-10.5-135.3
				l-12,0.2l8.2-11.9C717.3,420.7,707.6,406.5,695,404.7z"/>
			<path class="st19" d="M653.7,588h130.9"/>
			<path class="st19" d="M694.9,404.8l22.1,182.9"/>
			<path class="st3" d="M687.5,568.6c4.7,3.4,19,14.9,19.7,18.1c0.7,3.2-6.9,23.9-8.7,25.4c-1.7,1.6-18.2,5.5-19,6.6
				c-0.7,1.1-0.2,4.3,0.6,5.9c0.7,1.6,26.1-0.2,26.1-0.2s32.8-32.3,32.3-34.8c-0.4-2.5-37.2-35.5-37.2-35.5S682.8,565.2,687.5,568.6
				z"/>
			<path class="st20" d="M723.9,574.7c-1.3,8.5-5.7,21.2-19.6,23.8c-2.1,6.3-4.8,12.7-5.7,13.6c-1.7,1.5-18.1,5.5-19,6.6
				c-0.8,1.1-0.2,4.3,0.6,5.9c0.7,1.6,26.1-0.2,26.1-0.2s32.8-32.3,32.3-34.8C738.4,588.5,731.5,581.9,723.9,574.7z"/>
			<path class="st3" d="M525,597.1c-1.7,4.4-19.5,46.7-21.4,47.6c-1.9,0.9-54.7-24.9-55.1-27.4c-0.4-2.5,2-7.9,3.9-7.5
				c20.2,4,44.8,5.4,47.5,0.3c2.7-5.1,6.1-16.9,6.1-16.9S526.6,592.7,525,597.1z"/>
			<path class="st20" d="M452.3,609.7c-2-0.4-4.3,5.1-3.9,7.5c0.5,2.5,53.3,28.3,55.1,27.4c0.8-0.4,5-9.3,9.2-19.1
				c-16.3,2.5-25-5.1-28.7-12.3C473.5,612.9,462.8,611.8,452.3,609.7z"/>
			<path class="st21" d="M574.9,475.4c53.9,66.8,106.3,102.5,106.3,102.5l27.9-28.2L628.6,456c0,0,6.6-72.4-7.4-85.6
				C607.2,357.2,541,433.3,574.9,475.4z"/>
			<path class="st21" d="M552.2,366l-55.3,226l30,14.8c0,0,50.2-132.3,57.7-140.3c15.3-16.5,40-76.1,37.9-99.1S552.2,366,552.2,366z
				"/>
			<path class="st3" d="M648.5,381.9c1.3,4.3,5.5,13.2,1.5,29.1c7.5,11.5,4,19.8-13.2,21.8c-2.9-3.5-5.8-5.8-9-10.9
				c-1.1-4.6-1-11.6-1.1-13.5c-0.2-3.8,7.7-20.9,6.2-27.7C631.5,373.8,647.3,377.5,648.5,381.9z"/>
			<path class="st16" d="M651.2,427.3c-1.8-1.9-3.4-3.9-4.7-6.2"/>
			<path class="st16" d="M643.8,431.3c-2.9-2.8-6.9-8.5-9.1-11.9"/>
			<path class="st3" d="M505.9,364.9c-3.6,2.9-7.3,6.3-12,8.1c-7.1,1.7-20.1,16-20.1,19c0,2.9,2.6,3.9,4.2,4c1.4,0.1,4.3-3.2,5.1-4
				c-1.3,2.9-2,6.9-0.6,8.2c1.5,1.2,3.5,1.7,4.9,0.1c2.4-2.7,1.7-5.7,2-7.5c1.1-2.1,4.2-7,5.6-7.7c1,0.1,2.3,0.3,2.5,1.8
				c0.2,1.5-3.2,4.7-3.6,6.1c0,1.7,1.9,3.9,3.6,3.5c1.9-0.5,7.7-6.1,8.9-7.7c1.7-2,2.5-6.6,3.4-8.1c1-1.5,4.5-4.7,5.1-5.4
				C515.6,374.7,509.5,362,505.9,364.9z"/>
			<path class="st16" d="M496.6,385.7c-4.2-3.5-10.8,3.7-13.8,6.6"/>
			<path class="st10" d="M561.3,249.8c-13.8,13.2-20.6,46.3-24.3,67.6c-12.2,11.9-36.6,38.3-36.5,44.7c0.1,6.4,11.9,16.9,14.9,16.8
				c3-0.1,31.3-31,35.6-34.6C555.4,340.8,564.6,246.7,561.3,249.8z"/>
			<path class="st22" d="M556.3,195.4c-1.9-1.7-5.1-2.4-5.1-11.4c0-9.8,11.7-18.7,26.5-18.7c23.4,0,30.1,20.5,31,27.7
				c0.8,7.3-0.5,24.3,1.1,31.4c3.3,14.2,17,25.2,17,49.1c0,7.3-31.4,1-37,0.2s-12.3-38.1-12.3-38.1S558.1,197.2,556.3,195.4z"/>
			<path class="st3" d="M591.9,217.3c-1.1,4.5-1.3,23.9-0.5,30.3c-3.8,2.8-18,2.5-20.9-0.6c0.9-8,0.9-15,0-18.5
				C569.6,225.1,593,212.8,591.9,217.3z"/>
			<path class="st3" d="M550.1,203.2c0-15.5,11.2-28,25-28c13.8,0,25,12.6,25,28s-11.2,28-25,28
				C561.3,231.2,550.1,218.6,550.1,203.2z"/>
			<path class="st12" d="M580,229.8c-0.4-4.7-4.3-15.3-6.4-16.4s-18.2-3.2-23.5-11.2c-2.8,2.3-5.1,6.5-4.7,7.4
				c0.5,1.8,4.7,4.9,4.7,4.9s1,11.7,9.4,16.8C565.7,235,577.7,231.9,580,229.8z"/>
			<path class="st23" d="M573.2,214.9c2.9-4.7,10.4-10.9,14.4-12.6"/>
			<path class="st23" d="M576.9,221.8c0,0,16,2.5,18.5-4.5"/>
			<path class="st22" d="M561.5,176.9c3.3,2.9,4.7,10.4,7.7,14.1c4.8,6,14.2,7,17.2,15c2.9,8,17.9,1.6,17.9,1.6l-2-19L591.1,177
				l-17.4-5C573.7,172,558.1,173.9,561.5,176.9z"/>
			<path class="st3" d="M581.9,210.1c0-5.3,4.3-9.6,9.6-9.6s9.6,4.3,9.6,9.6c0,5.3-4.3,9.6-9.6,9.6l0,0
				C586.2,219.7,581.9,215.4,581.9,210.1z"/>
			<path class="st14" d="M561,201.2c0-2,0.9-3.5,1.9-3.5c1,0,1.9,1.6,1.9,3.5c0,2-0.9,3.5-1.9,3.5S561,203.2,561,201.2z"/>
			<path class="st10" d="M581.2,237.2c41.1,0,69.8,77.9,72.7,89.7c2.9,11.8,0.7,54.9-0.4,58.2c-4.1,0.8-18.8-1.9-21.9-3.8
				c-2.7-4.5-3.7-38.5-4.7-41.6c-0.7-2.6-2.1-5-3.9-6.9c1.2,9.1-0.1,31.6-0.9,34.8c-0.8,3.2-64.5,3.1-69.4,1.1
				c-3-1.3-5.1-2.6-5.6-5.6c-0.7-5.1,1.4-8.4,0.8-12.6c-0.6-4.2-2.9-4.9-3.6-11.8c-0.7-7.2,4.1-16.7,2.5-23.9
				C538.3,277.4,558.5,237.2,581.2,237.2z"/>
			<path class="st10" d="M572.4,236.9h17.6c1.1,0,1.9,1.2,1.9,2.7v7.4c0,1.5-0.9,2.7-1.9,2.7h-17.6c-1.1,0-1.9-1.2-1.9-2.7v-7.4
				C570.5,238.2,571.3,236.9,572.4,236.9z"/>
			<path class="st24" d="M503.6,595.3l66.2-218.7"/>
			<path class="st24" d="M531.8,594l-31.5-15.6"/>
			<path class="st24" d="M566.8,477.1c-3.2,1.9-10,0.9-13.3-1.3"/>
			<path class="st24" d="M558.1,458.2l14.1,13.2"/>
			<path class="st24" d="M577.7,479.5c3.2-6.9,5.5-11.6,6.7-13c13.6-14.8,34.8-63.6,37.7-90.4"/>
			<path class="st24" d="M690.6,568.3c0,0-90.3-86.2-94.5-89.5c-0.2-6-0.7-17.8-4.8-21.4"/>
			<path class="st24" d="M626.6,461.4c-2.9,2-7.8,9.1-8.2,13.2"/>
			<path class="st24" d="M623.2,458.6c-1.6,0.5-6.3,3.1-7.4,5.3"/>
			<path class="st24" d="M623.4,454.9l-5.8-0.4l-9.7-3.7"/>
			<path class="st24" d="M623.2,454.8l-5.4-0.4"/>
			<path class="st24" d="M700.4,539.5l-31.4,29.2"/>
			<path class="st24" d="M547.9,383.2c0,0,23.4,4.2,37.8,2.3"/>
			<path class="st7" d="M550.7,369.9c-2-1.1-3.3-2.5-3.7-4.7c-0.7-5.1,1.4-8.4,0.8-12.6s-2.9-4.9-3.6-11.8
				c-0.7-7.2,4.1-16.7,2.5-23.9c-2.9-13.6-2.5-27.6,1.2-41"/>
			<path class="st7" d="M522.4,373.4c-2.5-1.4-15-12.9-18.1-19"/>
			<path class="st7" d="M519.2,370.7l-6.5,6.9"/>
			<path class="st7" d="M514.9,367.6l-6.5,6.9"/>
			<path class="st7" d="M510.9,363.8l-6.2,6.6"/>
			<path class="st7" d="M507.7,359.6l-6,6.5"/>
			<path class="st7" d="M654.5,376.5l-24.8-2.7"/>
			<path class="st7" d="M650.4,376.1l-0.7,11.1"/>
			<path class="st7" d="M644.2,375.4l-1,11"/>
			<path class="st7" d="M638.2,374.7l-0.7,10.5"/>
			<path class="st7" d="M655.9,347.7c-8.8,0-15.9-7.2-15.9-16c0-6.5,3.9-12.3,9.9-14.7"/>
			<path class="st7" d="M622.9,334.9c-2.2-3.6-27.9-44-29.2-45.7"/>
			<path class="st7" d="M588,289.5l5.8-0.3"/>
			<path class="st7" d="M588.9,295.9l4.9-6.9"/>
			<path class="st7" d="M592.9,299.5l0.7-10.3"/>
			<path class="st7" d="M559.4,352.5l18.1-8.8"/>
			<path class="st7" d="M577.1,341.3l-23.8,4.7"/>
			<path class="st7" d="M556.3,342.5l19.8-13.1"/>
			<path class="st7" d="M581.6,249.5h-9.2c-1.1,0-1.9-1.2-1.9-2.7v-7.3c0-1.5,0.9-2.7,1.9-2.7H590c0.6,0.1,1.1,0.4,1.4,1"/>
			<path class="st7" d="M575.1,236.9l0.2,12.6"/>
			<path class="st7" d="M580.4,237.1l0.1,6.1l0.1,6.5"/>
			<path class="st7" d="M586.2,237.1l0.1,6.1l0.1,6.5"/>
			<path class="st23" d="M507.3,637.9l-57.7-25.8"/>
			<path class="st23" d="M735.2,585.7l-31,33.2l-24.8,3.3"/>
			<path class="st10" d="M434.1,223.5c-4.2-1.8-3.8-11.8,0.8-15.8c4.6-3.9,15.9-7.3,20.4-19.3c1.6-3.3,6.5,1.5,7.7,9.6
				C463.7,217.5,443.5,227.5,434.1,223.5z"/>
			<path class="st19" d="M454.4,200.3c-0.7,4.3-9.6,23.5-27.8,28.4"/>
			<path class="st18" d="M550.1,202.1c-2.8,2.3-5.1,6.5-4.7,7.4c0.5,1.8,4.7,4.9,4.7,4.9s1,11.7,9.4,16.8c2.9,1.8,7.4,2,11.4,1.5"/>
			<path class="st19" d="M739.8,583.5c3.4-16.4,2.2-69.7-7.3-113.9"/>
		</g>
	</g>
</g>
</svg>
